<?xml version="1.0" encoding="UTF-8" standalone="no"?>
<svg
   width="355"
   height="350"
   viewBox="0 0 355 350"
   version="1.1"
   xml:space="preserve"
   id="SVGRoot"
   xmlns="http://www.w3.org/2000/svg"
   xmlns:svg="http://www.w3.org/2000/svg"><defs
   id="defs48"><mask
     maskUnits="userSpaceOnUse"
     id="mask-powermask-path-effect92"><path
       id="mask-powermask-path-effect92_box"
       style="fill:#ffffff;fill-opacity:1"
       d="M -1,-1 H 171 V 301 H -1 Z" /><path
       style="display:inline;opacity:1;mix-blend-mode:normal;fill:#000000;fill-opacity:1;stroke:none;stroke-width:45;stroke-linejoin:round;stroke-dasharray:none"
       d="m 250,135 v 30 H 145 v 30 l -60,-45 60,-45 v 30 z"
       id="path91" /></mask><mask
     maskUnits="userSpaceOnUse"
     id="mask-powermask-path-effect93"><path
       id="mask-powermask-path-effect93_box"
       style="fill:#ffffff;fill-opacity:1"
       d="M 184,-1 H 356 V 301 H 184 Z" /><path
       style="display:inline;opacity:1;mix-blend-mode:normal;fill:#000000;fill-opacity:1;stroke:none;stroke-width:45;stroke-linejoin:round;stroke-dasharray:none"
       d="m 250,135 v 30 H 145 v 30 l -60,-45 60,-45 v 30 z"
       id="path92" /></mask></defs>

<style
   type="text/css"
   id="style1">
g.prefab path {
  vector-effect:non-scaling-stroke;
  -inkscape-stroke:hairline;
  fill: none;
  fill-opacity: 1;
  stroke-opacity: 1;
  stroke: #00349c;
}
</style>

<path
   style="display:inline;fill:#000000;stroke:none;stroke-width:15;stroke-linejoin:round;stroke-dasharray:none"
   id="rect59"
   width="170"
   height="300"
   x="185"
   y="0"
   ry="10"
   rx="10"
   mask="url(#mask-powermask-path-effect93)"
   transform="translate(0,25)"
   d="m 195,0 h 150 c 5.54,0 10,4.46 10,10 v 280 c 0,5.54 -4.46,10 -10,10 H 195 c -5.54,0 -10,-4.46 -10,-10 V 10 c 0,-5.54 4.46,-10 10,-10 z" /><path
   style="display:inline;fill:#000000;stroke:none;stroke-width:15;stroke-linejoin:round;stroke-dasharray:none"
   id="rect60"
   width="170"
   height="300"
   x="0"
   y="0"
   rx="10"
   ry="10"
   mask="url(#mask-powermask-path-effect92)"
   transform="translate(0,25)"
   d="m 10,0 h 150 c 5.54,0 10,4.46 10,10 v 280 c 0,5.54 -4.46,10 -10,10 H 10 C 4.46,300 0,295.54 0,290 V 10 C 0,4.46 4.46,0 10,0 Z" /></svg>
